<?xml version="1.0" encoding="iso-8859-1"?>
<!-- Generator: Adobe Illustrator 19.0.0, SVG Export Plug-In . SVG Version: 6.00 Build 0)  -->
<svg version="1.1" id="Layer_1" xmlns="http://www.w3.org/2000/svg" xmlns:xlink="http://www.w3.org/1999/xlink" x="0px" y="0px"
	 viewBox="0 0 510.268 510.268" style="enable-background:new 0 0 510.268 510.268;" xml:space="preserve">
<g>
	<g>
		<g>
			<path fill="#003031" d="M243.6,286.844c0,13.525-0.661,27.541-1.984,41.685c-0.277,2.987,0.725,5.931,2.731,8.171
				c2.027,2.219,4.885,3.477,7.893,3.477h51.157c2.773,0,5.44-1.088,7.424-3.029c32.811-31.829,70.549-54.805,112.149-68.288
				c5.141-1.664,8.213-6.891,7.168-12.203C406.501,136.23,304.379,48.038,181.797,42.15c-4.16-0.491-8.128,2.091-10.027,5.824
				c-1.899,3.755-1.408,8.277,1.237,11.541C217.872,114.812,243.6,197.649,243.6,286.844z"/>
			<path fill="#003031" d="M360.336,332.604c1.365,4.501,5.504,7.573,10.219,7.573h101.035c3.925,0,7.531-2.155,9.387-5.611
				c8.448-15.595,17.493-29.419,26.901-41.003c2.667-3.264,3.136-7.787,1.237-11.541c-1.899-3.755-5.931-6.507-10.027-5.824
				c-47.467,2.261-93.952,17.621-134.421,44.416C360.741,323.217,358.992,328.081,360.336,332.604z"/>
			<path fill="#003031" d="M499.6,404.177h-10.667v-32c0-5.888-4.779-10.667-10.667-10.667H51.6c-5.888,0-10.667,4.779-10.667,10.667v32H30.267
				c-5.888,0-10.667,4.779-10.667,10.667v42.667c0,5.888,4.779,10.667,10.667,10.667H499.6c5.888,0,10.667-4.779,10.667-10.667
				v-42.667C510.267,408.956,505.488,404.177,499.6,404.177z"/>
			<path fill="#003031" d="M57.381,340.177H102.8c3.029,0,5.909-1.301,7.936-3.52c2.027-2.24,3.008-5.248,2.667-8.256
				c-2.581-24.661-7.04-48.043-13.205-69.525c-0.917-3.179-3.285-5.781-6.379-6.976c-26.773-10.432-54.571-16.427-82.645-17.749
				c-4.48-0.597-8.128,2.091-10.027,5.824c-1.899,3.733-1.408,8.277,1.237,11.52c17.856,22.037,33.003,49.515,44.992,81.728
				C48.933,337.404,52.923,340.177,57.381,340.177z"/>
			<path fill="#003031" d="M135.163,330.47c0.491,5.504,5.099,9.707,10.624,9.707h63.467c5.461,0,10.048-4.139,10.624-9.579
				c1.6-15.68,2.389-29.995,2.389-43.755c0-39.083-5.653-78.848-16.341-115.029c-0.747-2.517-2.411-4.693-4.651-6.059
				c-38.016-23.339-81.515-36.779-125.803-38.891c-4.032-0.619-8.128,2.091-10.027,5.824c-1.899,3.733-1.408,8.277,1.237,11.541
				C104.123,190.396,128.443,256.529,135.163,330.47z"/>
		</g>
	</g>
</g>
<g>
</g>
<g>
</g>
<g>
</g>
<g>
</g>
<g>
</g>
<g>
</g>
<g>
</g>
<g>
</g>
<g>
</g>
<g>
</g>
<g>
</g>
<g>
</g>
<g>
</g>
<g>
</g>
<g>
</g>
</svg>
